<?xml version="1.0" encoding="UTF-8"?>
<svg version="1.1" xmlns="http://www.w3.org/2000/svg" width="225" height="184">
<path d="M0 0 C8.58121221 6.10914114 13.71686123 14.12246331 15.609375 24.4921875 C16.79733046 34.3331519 14.60202632 44.61626212 8.984375 52.8671875 C2.29740741 60.83427987 -6.58893883 65.88692066 -16.90234375 66.8046875 C-27.86762315 67.15947915 -37.02613332 65.24490252 -45.61328125 58.16796875 C-53.633902 50.60566918 -57.41259603 40.95622235 -57.890625 29.9296875 C-57.43024181 19.72700186 -53.64339116 10.68784526 -46.390625 3.4921875 C-32.84621523 -7.61617735 -14.93132816 -9.41747168 0 0 Z M-25.390625 -2.5078125 C-25.390625 5.4121875 -25.390625 13.3321875 -25.390625 21.4921875 C-34.630625 21.4921875 -43.870625 21.4921875 -53.390625 21.4921875 C-53.720625 23.4721875 -54.050625 25.4521875 -54.390625 27.4921875 C-44.820625 27.4921875 -35.250625 27.4921875 -25.390625 27.4921875 C-25.390625 39.3721875 -25.390625 51.2521875 -25.390625 63.4921875 C-22.420625 63.4921875 -19.450625 63.4921875 -16.390625 63.4921875 C-16.390625 51.6121875 -16.390625 39.7321875 -16.390625 27.4921875 C-6.820625 27.4921875 2.749375 27.4921875 12.609375 27.4921875 C12.114375 24.5221875 12.114375 24.5221875 11.609375 21.4921875 C2.369375 21.4921875 -6.870625 21.4921875 -16.390625 21.4921875 C-16.390625 13.5721875 -16.390625 5.6521875 -16.390625 -2.5078125 C-21.24000203 -3.84869607 -21.24000203 -3.84869607 -25.390625 -2.5078125 Z M-13.390625 0.4921875 C-13.390625 4.7821875 -13.390625 9.0721875 -13.390625 13.4921875 C-12.070625 13.1621875 -10.750625 12.8321875 -9.390625 12.4921875 C-9.390625 13.1521875 -9.390625 13.8121875 -9.390625 14.4921875 C-8.730625 14.4921875 -8.070625 14.4921875 -7.390625 14.4921875 C-7.060625 15.8121875 -6.730625 17.1321875 -6.390625 18.4921875 C-2.100625 18.4921875 2.189375 18.4921875 6.609375 18.4921875 C2.66926264 9.78246544 -1.87316881 5.49571091 -10.390625 1.4921875 C-11.380625 1.1621875 -12.370625 0.8321875 -13.390625 0.4921875 Z M-43.390625 9.4921875 C-46.74707853 13.65620173 -46.74707853 13.65620173 -48.390625 18.4921875 C-44.100625 18.4921875 -39.810625 18.4921875 -35.390625 18.4921875 C-35.060625 17.1721875 -34.730625 15.8521875 -34.390625 14.4921875 C-33.730625 14.4921875 -33.070625 14.4921875 -32.390625 14.4921875 C-32.390625 13.8321875 -32.390625 13.1721875 -32.390625 12.4921875 C-31.070625 12.8221875 -29.750625 13.1521875 -28.390625 13.4921875 C-28.390625 9.2021875 -28.390625 4.9121875 -28.390625 0.4921875 C-33.58590114 0.4921875 -40.02122425 6.19766232 -43.390625 9.4921875 Z M-50.390625 31.4921875 C-49.75389836 41.67981377 -46.85883485 47.74008077 -39.41796875 54.79296875 C-35.91979284 57.7249659 -32.98223818 59.4921875 -28.390625 59.4921875 C-28.390625 53.2221875 -28.390625 46.9521875 -28.390625 40.4921875 C-30.700625 40.8221875 -33.010625 41.1521875 -35.390625 41.4921875 C-35.720625 40.5021875 -36.050625 39.5121875 -36.390625 38.4921875 C-37.050625 38.4921875 -37.710625 38.4921875 -38.390625 38.4921875 C-37.730625 36.1821875 -37.070625 33.8721875 -36.390625 31.4921875 C-41.010625 31.4921875 -45.630625 31.4921875 -50.390625 31.4921875 Z M-5.390625 31.4921875 C-4.730625 33.8021875 -4.070625 36.1121875 -3.390625 38.4921875 C-4.380625 38.4921875 -5.370625 38.4921875 -6.390625 38.4921875 C-6.390625 39.4821875 -6.390625 40.4721875 -6.390625 41.4921875 C-8.700625 41.1621875 -11.010625 40.8321875 -13.390625 40.4921875 C-13.390625 46.7621875 -13.390625 53.0321875 -13.390625 59.4921875 C-4.61214694 57.73649189 0.35256013 52.53608733 5.609375 45.4921875 C8.20843751 40.73443519 8.609375 37.01106998 8.609375 31.4921875 C3.989375 31.4921875 -0.630625 31.4921875 -5.390625 31.4921875 Z " fill="#FFFFFE" transform="translate(133.390625,5.5078125)"/>
<path d="M0 0 C4.95 0 9.9 0 15 0 C15 0.66 15 1.32 15 2 C14.01 2 13.02 2 12 2 C11.94150446 5.20825562 11.90623838 8.41637233 11.875 11.625 C11.85824219 12.52863281 11.84148437 13.43226562 11.82421875 14.36328125 C11.78825211 19.29071027 11.91573531 23.42759927 14 28 C16.08921756 30.17020292 16.08921756 30.17020292 19 31 C22.74466879 30.8348589 22.74466879 30.8348589 26 29 C28.34189545 23.24061541 28.24005395 17.70903583 28.125 11.5625 C28.11597656 10.64017578 28.10695312 9.71785156 28.09765625 8.76757812 C28.0742766 6.51144191 28.04150916 4.25586316 28 2 C26.68 2 25.36 2 24 2 C24 1.34 24 0.68 24 0 C28.62 0 33.24 0 38 0 C38 0.66 38 1.32 38 2 C37.01 2.33 36.02 2.66 35 3 C34.98541748 3.59949463 34.97083496 4.19898926 34.95581055 4.81665039 C34.88076179 7.56587455 34.78429248 10.31395889 34.6875 13.0625 C34.66494141 14.00544922 34.64238281 14.94839844 34.61914062 15.91992188 C34.35242012 22.87890235 33.68603334 28.31396666 28.5625 33.4375 C23.35006837 35.72365422 18.60487873 35.75346792 13 35 C7.88223563 32.66558117 6.016645 30.16623662 4 25 C3.50690053 21.21267676 3.39866199 17.44074546 3.3125 13.625 C3.27833984 12.60277344 3.24417969 11.58054687 3.20898438 10.52734375 C3.12691412 8.01833886 3.05763124 5.50966535 3 3 C2.01 2.67 1.02 2.34 0 2 C0 1.34 0 0.68 0 0 Z " fill="#FFFFFE" transform="translate(127,95)"/>
<path d="M0 0 C3.20815845 -0.08774066 6.41600462 -0.14063706 9.625 -0.1875 C10.52863281 -0.21263672 11.43226562 -0.23777344 12.36328125 -0.26367188 C17.66482254 -0.32171795 21.45985656 -0.07211599 26 3 C28.47862452 6.71793677 28.53102546 9.69279347 28 14 C26.58288585 17.54278538 25.40127078 18.74140328 22.1875 20.8125 C18.87353477 22.0471145 16.50302515 22.25021608 13 22 C13 21.34 13 20.68 13 20 C13.969375 19.525625 14.93875 19.05125 15.9375 18.5625 C18.80477437 17.29806053 18.80477437 17.29806053 20 16 C20.53073291 10.75725882 20.53073291 10.75725882 18.75 6.0625 C16.74363103 4.72612328 16.74363103 4.72612328 13 4 C13 14.23 13 24.46 13 35 C14.65 35.66 16.3 36.32 18 37 C17.67 37.66 17.34 38.32 17 39 C12.05 39 7.1 39 2 39 C1.67 38.34 1.34 37.68 1 37 C1.99 36.34 2.98 35.68 4 35 C4.26727014 32.51659097 4.34866334 30.28527932 4.29296875 27.8046875 C4.28660149 26.74352219 4.28660149 26.74352219 4.28010559 25.66091919 C4.26329547 23.39856095 4.22564128 21.13708952 4.1875 18.875 C4.17245607 17.34246077 4.15876716 15.8099076 4.14648438 14.27734375 C4.11338462 10.51788682 4.06158825 6.75909382 4 3 C2.68 2.67 1.36 2.34 0 2 C0 1.34 0 0.68 0 0 Z " fill="#FFFFFE" transform="translate(66,91)"/>
<path d="M0 0 C3 1 3 1 4.45458984 3.80395508 C4.96691478 5.03829242 5.46830871 6.27720183 5.9609375 7.51953125 C6.52071643 8.86528301 7.08061612 10.21098454 7.640625 11.55664062 C8.5092128 13.68129853 9.37308721 15.80776863 10.23339844 17.93579102 C11.06823133 19.98964249 11.92006117 22.03582945 12.7734375 24.08203125 C13.02257904 24.71446243 13.27172058 25.34689362 13.52841187 25.99848938 C15.28026686 30.17907327 17.26792887 32.45446901 21 35 C19.13775139 36.86224861 16.57468825 36.12354714 14.10546875 36.1328125 C12 36 12 36 8 35 C7.01 31.37 6.02 27.74 5 24 C1.37 24 -2.26 24 -6 24 C-6.33 25.65 -6.66 27.3 -7 29 C-7.32483418 30.33542939 -7.6550855 31.66961551 -8 33 C-7.34 33.33 -6.68 33.66 -6 34 C-6 34.66 -6 35.32 -6 36 C-9.96 36 -13.92 36 -18 36 C-18.33 35.34 -18.66 34.68 -19 34 C-16.525 33.505 -16.525 33.505 -14 33 C-13.41605469 31.14375 -13.41605469 31.14375 -12.8203125 29.25 C-10.85219926 23.34797298 -8.37800164 17.69126311 -5.875 12 C-5.41996094 10.95199219 -4.96492188 9.90398437 -4.49609375 8.82421875 C-1.13531466 1.13531466 -1.13531466 1.13531466 0 0 Z M-1 12 C-1.99 14.97 -2.98 17.94 -4 21 C-1.69 21 0.62 21 3 21 C2.50351065 16.53159589 2.31012244 15.31012244 -1 12 Z " fill="#FFFFFE" transform="translate(110,94)"/>
<path d="M0 0 C1.18851563 0.00902344 2.37703125 0.01804687 3.6015625 0.02734375 C4.51679688 0.03894531 5.43203125 0.05054687 6.375 0.0625 C6.375 3.0325 6.375 6.0025 6.375 9.0625 C5.715 9.0625 5.055 9.0625 4.375 9.0625 C3.9625 8.2375 3.55 7.4125 3.125 6.5625 C2.5475 5.7375 1.97 4.9125 1.375 4.0625 C-1.75135209 3.64503392 -1.75135209 3.64503392 -4.625 4.0625 C-5.285 5.3825 -5.945 6.7025 -6.625 8.0625 C-3.44624501 12.10818817 -0.2247971 15.39214928 3.82421875 18.5703125 C6.80439748 21.43789001 7.35067105 23.84701501 7.8125 27.9375 C7.71397037 32.72962268 5.73322174 34.78423592 2.375 38.0625 C-0.35577876 39.42788938 -2.58060367 39.19481826 -5.625 39.1875 C-7.23375 39.19136719 -7.23375 39.19136719 -8.875 39.1953125 C-11.625 39.0625 -11.625 39.0625 -13.625 38.0625 C-13.625 34.7625 -13.625 31.4625 -13.625 28.0625 C-12.965 28.0625 -12.305 28.0625 -11.625 28.0625 C-11.25375 29.031875 -10.8825 30.00125 -10.5 31 C-8.91217868 34.31507824 -8.91217868 34.31507824 -5.625 35.125 C-2.68416413 35.30584465 -2.68416413 35.30584465 -0.6875 33.9375 C0.57015081 32.07730246 0.57015081 32.07730246 0.375 29.6875 C-0.94369818 26.22591729 -2.89434502 24.54491362 -5.625 22.0625 C-12.91025858 14.94666604 -12.91025858 14.94666604 -13 9.625 C-12.93445313 6.26572291 -12.82944254 5.33509005 -10.75 2.5625 C-6.97200246 -0.10432179 -4.61964722 -0.04529066 0 0 Z " fill="#FFFFFE" transform="translate(13.625,90.9375)"/>
<path d="M0 0 C1.94024048 0.07069702 1.94024048 0.07069702 3.91967773 0.14282227 C4.9496714 0.17823875 4.9496714 0.17823875 6.00047302 0.21437073 C8.20160776 0.29117032 10.40240492 0.37512354 12.60327148 0.45922852 C14.09218705 0.51243295 15.58111928 0.56517344 17.07006836 0.61743164 C20.72717821 0.74680703 24.3840182 0.8826009 28.04077148 1.02172852 C28.04077148 3.66172852 28.04077148 6.30172852 28.04077148 9.02172852 C27.38077148 9.02172852 26.72077148 9.02172852 26.04077148 9.02172852 C26.04077148 8.03172852 26.04077148 7.04172852 26.04077148 6.02172852 C22.74077148 5.69172852 19.44077148 5.36172852 16.04077148 5.02172852 C16.04077148 14.26172852 16.04077148 23.50172852 16.04077148 33.02172852 C17.69077148 33.35172852 19.34077148 33.68172852 21.04077148 34.02172852 C20.71077148 34.68172852 20.38077148 35.34172852 20.04077148 36.02172852 C15.09077148 36.02172852 10.14077148 36.02172852 5.04077148 36.02172852 C5.04077148 35.36172852 5.04077148 34.70172852 5.04077148 34.02172852 C6.03077148 33.52672852 6.03077148 33.52672852 7.04077148 33.02172852 C7.37077148 23.78172852 7.70077148 14.54172852 8.04077148 5.02172852 C-0.30072233 5.25091895 -0.30072233 5.25091895 -3.95922852 8.02172852 C-4.00164575 5.68878076 -4.00015789 3.35470285 -3.95922852 1.02172852 C-2.95922852 0.02172852 -2.95922852 0.02172852 0 0 Z " fill="#FFFFFE" transform="translate(27.959228515625,93.978271484375)"/>
<path d="M0 0 C1.19882813 0.15275391 1.19882813 0.15275391 2.421875 0.30859375 C3.02515625 0.39238281 3.6284375 0.47617188 4.25 0.5625 C5.34658936 3.85226808 5.04953138 5.27553767 4.25 8.5625 C3.59 8.5625 2.93 8.5625 2.25 8.5625 C1.59 7.2425 0.93 5.9225 0.25 4.5625 C-2.06 4.5625 -4.37 4.5625 -6.75 4.5625 C-7.08 6.2125 -7.41 7.8625 -7.75 9.5625 C-7.06292969 10.02140625 -6.37585938 10.4803125 -5.66796875 10.953125 C-4.76691406 11.56671875 -3.86585938 12.1803125 -2.9375 12.8125 C-2.04417969 13.41578125 -1.15085938 14.0190625 -0.23046875 14.640625 C2.83108301 17.01272495 4.89083884 18.8894076 5.71875 22.74609375 C5.78003318 27.16614285 5.71733926 28.97217672 2.875 32.5625 C-0.99185182 35.50867281 -2.92318972 35.69910291 -7.75 35.6875 C-9.35875 35.69136719 -9.35875 35.69136719 -11 35.6953125 C-13.75 35.5625 -13.75 35.5625 -15.75 34.5625 C-15.75 31.5925 -15.75 28.6225 -15.75 25.5625 C-15.09 25.2325 -14.43 24.9025 -13.75 24.5625 C-13.37875 25.531875 -13.0075 26.50125 -12.625 27.5 C-11.0425712 30.82273529 -11.0425712 30.82273529 -7.75 31.5625 C-4.56509993 31.8398501 -4.56509993 31.8398501 -1.75 29.5625 C-1.05117732 27.15477947 -1.05117732 27.15477947 -1.75 24.5625 C-4.09228937 22.31034815 -4.09228937 22.31034815 -7.125 20.4375 C-12.58307573 16.8128864 -12.58307573 16.8128864 -14.75 13.5625 C-15.63125894 6.7327432 -15.63125894 6.7327432 -13.546875 3.96484375 C-9.10364217 0.11628602 -5.66473081 -0.74974378 0 0 Z " fill="#FFFFFE" transform="translate(219.75,94.4375)"/>
<path d="M0 0 C5.28 0 10.56 0 16 0 C16 0.66 16 1.32 16 2 C15.01 2.33 14.02 2.66 13 3 C12.97113463 7.31248609 12.95324745 11.62494762 12.9375 15.9375 C12.92912109 17.16919922 12.92074219 18.40089844 12.91210938 19.66992188 C12.90888672 20.83974609 12.90566406 22.00957031 12.90234375 23.21484375 C12.89710693 24.29886475 12.89187012 25.38288574 12.88647461 26.49975586 C12.71573103 28.94049948 12.71573103 28.94049948 14 30 C15.68608966 30.07205511 17.37500659 30.08386068 19.0625 30.0625 C19.98160156 30.05347656 20.90070313 30.04445313 21.84765625 30.03515625 C22.55792969 30.02355469 23.26820313 30.01195313 24 30 C24.33 28.68 24.66 27.36 25 26 C25.33 26 25.66 26 26 26 C26.09765625 32.15234375 26.09765625 32.15234375 26 34 C25 35 25 35 22.77514648 35.11352539 C21.81680908 35.10828857 20.85847168 35.10305176 19.87109375 35.09765625 C18.31938477 35.09282227 18.31938477 35.09282227 16.73632812 35.08789062 C15.64771484 35.07951172 14.55910156 35.07113281 13.4375 35.0625 C11.7987793 35.05573242 11.7987793 35.05573242 10.12695312 35.04882812 C7.41791505 35.03699826 4.70898401 35.02051543 2 35 C1.67 34.34 1.34 33.68 1 33 C1.73343628 32.44928833 1.73343628 32.44928833 2.48168945 31.88745117 C4.65504329 29.18569872 4.3413141 27.23330137 4.29296875 23.80078125 C4.2784668 21.98803711 4.2784668 21.98803711 4.26367188 20.13867188 C4.23853516 18.87603516 4.21339844 17.61339844 4.1875 16.3125 C4.17396484 15.03826172 4.16042969 13.76402344 4.14648438 12.45117188 C4.11108199 9.30035943 4.0616979 6.15038955 4 3 C2.68 2.34 1.36 1.68 0 1 C0 0.67 0 0.34 0 0 Z " fill="#FFFFFE" transform="translate(166,95)"/>
<path d="M0 0 C74.25 0 148.5 0 225 0 C225 0.33 225 0.66 225 1 C150.75 1 76.5 1 0 1 C0 0.67 0 0.34 0 0 Z " fill="#FFFFFF" transform="translate(0,165)"/>
<path d="M0 0 C2.96865509 2.54456151 4.3619751 5.48994665 6 9 C8.24027294 6.11964908 10.16172132 3.15133488 12 0 C14.68092691 2.68092691 14.38670257 4.39167363 14.625 8.125 C14.69976562 9.22070312 14.77453125 10.31640625 14.8515625 11.4453125 C14.92503906 12.70988281 14.92503906 12.70988281 15 14 C16.32 14 17.64 14 19 14 C19.103125 13.175 19.20625 12.35 19.3125 11.5 C20.11646056 7.40710988 21.46352158 3.87459775 23 0 C26 1 26 1 27.3515625 3.6171875 C27.98191406 5.22980469 27.98191406 5.22980469 28.625 6.875 C29.26308594 8.47988281 29.26308594 8.47988281 29.9140625 10.1171875 C30.64748674 12.06419141 31.34206875 14.02620624 32 16 C30.68 16 29.36 16 28 16 C27.7525 15.195625 27.505 14.39125 27.25 13.5625 C26.27761141 10.828919 26.27761141 10.828919 23.875 10.1875 C23.25625 10.125625 22.6375 10.06375 22 10 C22 11.98 22 13.96 22 16 C14.25 16.125 14.25 16.125 12 15 C11.59270772 12.67843403 11.25561323 10.3431213 11 8 C9.68 10.31 8.36 12.62 7 15 C6.34 15 5.68 15 5 15 C4.01 13.02 3.02 11.04 2 9 C1.34 10.65 0.68 12.3 0 14 C0.66 14.33 1.32 14.66 2 15 C0.35 15.33 -1.3 15.66 -3 16 C-2.69262339 13.52009745 -2.37935917 11.04119265 -2.0625 8.5625 C-1.97548828 7.85544922 -1.88847656 7.14839844 -1.79882812 6.41992188 C-1.11328125 1.11328125 -1.11328125 1.11328125 0 0 Z M23 6 C23 6.66 23 7.32 23 8 C23.66 8 24.32 8 25 8 C25 7.34 25 6.68 25 6 C24.34 6 23.68 6 23 6 Z " fill="#FFFFFE" transform="translate(74,140)"/>
<path d="M0 0 C1.45792884 -0.05399736 2.91642712 -0.09279177 4.375 -0.125 C5.18710937 -0.14820313 5.99921875 -0.17140625 6.8359375 -0.1953125 C9 0 9 0 11 2 C11.125 4.4375 11.125 4.4375 11 7 C10.84188612 10.05270463 10.84188612 10.05270463 12 13 C13.65 13 15.3 13 17 13 C18.65 8.71 20.3 4.42 22 0 C22.66 0 23.32 0 24 0 C24.83764268 1.95649397 25.66999059 3.91525556 26.5 5.875 C26.9640625 6.96554688 27.428125 8.05609375 27.90625 9.1796875 C29 12 29 12 29 14 C29.66 14 30.32 14 31 14 C31 14.66 31 15.32 31 16 C28.525 15.505 28.525 15.505 26 15 C25.67 13.35 25.34 11.7 25 10 C23.68 10.33 22.36 10.66 21 11 C20.67 12.65 20.34 14.3 20 16 C12.7735697 16.61240935 12.7735697 16.61240935 9 13.625 C7 11 7 11 7 9 C6.34 9 5.68 9 5 9 C5.33 11.31 5.66 13.62 6 16 C4.35 16 2.7 16 1 16 C1.33 11.05 1.66 6.1 2 1 C1.34 0.67 0.68 0.34 0 0 Z M5 1 C5 3.31 5 5.62 5 8 C5.99 7.67 6.98 7.34 8 7 C8 5.35 8 3.7 8 2 C7.01 1.67 6.02 1.34 5 1 Z M22 5 C22 5.99 22 6.98 22 8 C22.66 7.67 23.32 7.34 24 7 C23.34 6.34 22.68 5.68 22 5 Z " fill="#FFFFFE" transform="translate(17,140)"/>
<path d="M0 0 C0.66 0 1.32 0 2 0 C2.67154933 1.28913487 3.33708859 2.58140204 4 3.875 C4.37125 4.59429687 4.7425 5.31359375 5.125 6.0546875 C6 8 6 8 6 10 C6.66 10 7.32 10 8 10 C8.28875 9.0925 8.5775 8.185 8.875 7.25 C9.76531776 4.67797092 10.71494413 2.38653234 12 0 C12.66 0 13.32 0 14 0 C14.95261487 4.76307437 15.08333357 9.1666528 15 14 C15.99 14.33 16.98 14.66 18 15 C16.125 15.625 16.125 15.625 14 16 C11.64046906 13.64046906 11.50858587 12.22104383 11 9 C10.01 10.98 9.02 12.96 8 15 C5 14 5 14 3.3125 10.9375 C2.879375 9.968125 2.44625 8.99875 2 8 C2 10.64 2 13.28 2 16 C0.35 16 -1.3 16 -3 16 C-3 15.34 -3 14.68 -3 14 C-2.34 14 -1.68 14 -1 14 C-1.01160156 13.40832031 -1.02320313 12.81664062 -1.03515625 12.20703125 C-1.08322386 7.99768215 -1.06006883 4.1077667 0 0 Z " fill="#FFFFFE" transform="translate(52,140)"/>
<path d="M0 0 C1.98 0 3.96 0 6 0 C5.67 1.98 5.34 3.96 5 6 C7.31 6 9.62 6 12 6 C11.67 4.02 11.34 2.04 11 0 C12.65 0 14.3 0 16 0 C15.67 4.62 15.34 9.24 15 14 C15.66 14 16.32 14 17 14 C17 14.66 17 15.32 17 16 C15.02 16 13.04 16 11 16 C11.33 13.36 11.66 10.72 12 8 C9.69 8 7.38 8 5 8 C5 9.98 5 11.96 5 14 C5.66 14.33 6.32 14.66 7 15 C6.67 15.33 6.34 15.66 6 16 C4.35 16 2.7 16 1 16 C1.33 11.05 1.66 6.1 2 1 C1.34 0.67 0.68 0.34 0 0 Z " fill="#FFFFFE" transform="translate(159,140)"/>
<path d="M0 0 C8 0 8 0 10 1 C10 4 10 7 10 10 C11.64639965 11.35827971 13.31295807 12.69254251 15 14 C15 14.66 15 15.32 15 16 C10.71193127 15.52354792 8.73352513 14.34097516 6 11 C6 10.34 6 9.68 6 9 C5.34 9 4.68 9 4 9 C4 10.65 4 12.3 4 14 C4.66 14.33 5.32 14.66 6 15 C5.67 15.33 5.34 15.66 5 16 C3.35 16 1.7 16 0 16 C0 10.72 0 5.44 0 0 Z M4 1 C4 3.31 4 5.62 4 8 C4.99 7.67 5.98 7.34 7 7 C7.33 6.01 7.66 5.02 8 4 C7.02149805 2.97895449 6.02019573 1.9793879 5 1 C4.67 1 4.34 1 4 1 Z " fill="#FFFFFE" transform="translate(108,140)"/>
<path d="M0 0 C2.16796875 0.41015625 2.16796875 0.41015625 4.79296875 2.47265625 C6.58386105 6.29865344 6.28843567 8.37647532 5.16796875 12.41015625 C4.04296875 14.28515625 4.04296875 14.28515625 2.16796875 15.41015625 C-1.21166547 16.20897888 -3.764649 16.69863794 -7.14453125 15.78515625 C-9.50277619 13.86362334 -10.0957818 12.35515406 -10.83203125 9.41015625 C-10.64645069 6.31714687 -10.4731976 4.24013232 -8.55859375 1.76171875 C-5.81103037 -0.38908879 -3.37992122 -0.12681597 0 0 Z M-6.08203125 3.03515625 C-8.14490526 5.32957377 -8.14490526 5.32957377 -7.76953125 8.47265625 C-6.6456585 12.1111299 -6.6456585 12.1111299 -3.83203125 14.41015625 C-1.24085812 14.40859401 -1.24085812 14.40859401 1.16796875 13.41015625 C3.4833447 10.5930743 3.4833447 10.5930743 2.98046875 7.41015625 C2.16156702 4.38651908 1.71223581 3.17157191 -0.83203125 1.41015625 C-3.8892667 1.11741097 -3.8892667 1.11741097 -6.08203125 3.03515625 Z " fill="#FFFFFE" transform="translate(206.83203125,139.58984375)"/>
<path d="M0 0 C2.5 1.5625 2.5 1.5625 4 4 C4.45019252 7.60154012 4.41219248 10.02104287 3 13.375 C-0.0692315 15.8687506 -3.09564851 16.29624457 -7 16 C-10 14.5625 -10 14.5625 -12 12 C-12.92632945 7.9913708 -12.61701264 5.02835441 -10.5 1.5 C-6.9683809 -0.61897146 -4.01676563 -0.79841448 0 0 Z M-7.625 2.25 C-9.23472946 4.29874659 -9.84642045 5.38914764 -10 8 C-8.98922073 10.76802871 -8.98922073 10.76802871 -7 13 C-4.56189845 14.15474612 -4.56189845 14.15474612 -2 14 C-0.04374022 13.04451019 -0.04374022 13.04451019 1 11 C1.58345476 8.04253508 1.58345476 8.04253508 1 5 C-0.68832016 2.5608859 -0.68832016 2.5608859 -3 1 C-5.94538008 0.69514462 -5.94538008 0.69514462 -7.625 2.25 Z " fill="#FFFFFE" transform="translate(190,140)"/>
<path d="M0 0 C0.99386719 0.02707031 1.98773438 0.05414063 3.01171875 0.08203125 C4.15060547 0.13423828 4.15060547 0.13423828 5.3125 0.1875 C5.3125 1.5075 5.3125 2.8275 5.3125 4.1875 C4.6525 4.1875 3.9925 4.1875 3.3125 4.1875 C3.3125 3.5275 3.3125 2.8675 3.3125 2.1875 C-0.83734647 1.86518793 -0.83734647 1.86518793 -4.625 3.3125 C-5.91926706 5.26401369 -5.91926706 5.26401369 -5.8125 8.1875 C-5.02243033 11.20210323 -5.02243033 11.20210323 -3.05078125 12.2421875 C-1.30117222 12.98745707 0.50510589 13.5959892 2.3125 14.1875 C1.6525 11.8775 0.9925 9.5675 0.3125 7.1875 C2.2925 7.1875 4.2725 7.1875 6.3125 7.1875 C5.7265625 13.33984375 5.7265625 13.33984375 5.3125 15.1875 C2.21201072 16.73774464 -0.26644218 16.47742015 -3.6875 16.1875 C-6.625 14.75 -6.625 14.75 -8.6875 12.1875 C-9.4105806 8.37238904 -9.72517338 4.74573377 -7.51171875 1.421875 C-4.94636261 -0.31399768 -3.06364976 -0.10812881 0 0 Z " fill="#FFFFFE" transform="translate(8.6875,139.8125)"/>
<path d="M0 0 C0.90105469 0.02707031 1.80210937 0.05414063 2.73046875 0.08203125 C3.76107422 0.13423828 3.76107422 0.13423828 4.8125 0.1875 C4.8125 1.8375 4.8125 3.4875 4.8125 5.1875 C3.9771875 4.4140625 3.9771875 4.4140625 3.125 3.625 C0.88231068 1.9079749 0.88231068 1.9079749 -1.875 2.4375 C-4.12519969 2.97370958 -4.12519969 2.97370958 -5.1875 4.1875 C-5.57630902 8.33589745 -5.57630902 8.33589745 -4 12.0625 C-1.56991919 13.57082602 0.00265752 13.54773622 2.8125 13.1875 C3.4725 12.5275 4.1325 11.8675 4.8125 11.1875 C4.4825 12.8375 4.1525 14.4875 3.8125 16.1875 C-4.07781079 16.49097349 -4.07781079 16.49097349 -7.1875 14.1875 C-9.28429403 11.49162197 -9.18260821 10.094556 -9 6.625 C-7.66394707 0.97246839 -5.70676989 -0.22234168 0 0 Z " fill="#FFFFFE" transform="translate(151.1875,139.8125)"/>
<path d="M0 0 C1.4540625 0.0309375 1.4540625 0.0309375 2.9375 0.0625 C2.6075 1.0525 2.2775 2.0425 1.9375 3.0625 C0.9475 2.7325 -0.0425 2.4025 -1.0625 2.0625 C0.43586105 5.17448065 2.13683758 8.1159615 3.9375 11.0625 C2.75 13.5625 2.75 13.5625 0.9375 16.0625 C-1.75 16.375 -1.75 16.375 -4.0625 16.0625 C-4.3925 14.4125 -4.7225 12.7625 -5.0625 11.0625 C-4.0725 11.5575 -4.0725 11.5575 -3.0625 12.0625 C-3.0625 12.7225 -3.0625 13.3825 -3.0625 14.0625 C-2.0725 13.7325 -1.0825 13.4025 -0.0625 13.0625 C-0.0625 12.0725 -0.0625 11.0825 -0.0625 10.0625 C-0.7225 9.629375 -1.3825 9.19625 -2.0625 8.75 C-4.0625 7.0625 -4.0625 7.0625 -4.375 3.9375 C-3.9557859 0.08073032 -3.9557859 0.08073032 0 0 Z " fill="#FFFFFE" transform="translate(136.0625,139.9375)"/>
<path d="M0 0 C1.98 0 3.96 0 6 0 C5.01 0.495 5.01 0.495 4 1 C4.33 4.96 4.66 8.92 5 13 C6.65 12.67 8.3 12.34 10 12 C10 13.32 10 14.64 10 16 C6.7 16 3.4 16 0 16 C0.33 15.01 0.66 14.02 1 13 C1.09357692 11.14772748 1.12993909 9.2921282 1.125 7.4375 C1.12757813 6.46683594 1.13015625 5.49617187 1.1328125 4.49609375 C1.16650953 2.00047047 1.16650953 2.00047047 0 0 Z " fill="#FFFFFE" transform="translate(215,140)"/>
<path d="M0 0 C1.32 0.33 2.64 0.66 4 1 C4 1.66 4 2.32 4 3 C4.66 3 5.32 3 6 3 C6.33 2.01 6.66 1.02 7 0 C7.99 0.33 8.98 0.66 10 1 C10 3.31 10 5.62 10 8 C6.7 8 3.4 8 0 8 C0 5.36 0 2.72 0 0 Z M2 4 C3 7 3 7 3 7 Z M6 5 C7 7 7 7 7 7 Z " fill="#FFFFFF" transform="translate(198,175)"/>
<path d="M0 0 C1.98 0.66 3.96 1.32 6 2 C5.59791618 7.62917348 3.71069698 10.00386479 0 14 C-1.23367942 10.29896173 -0.5463808 7.82466559 0 4 C-0.33 3.01 -0.66 2.02 -1 1 C-0.67 0.67 -0.34 0.34 0 0 Z " fill="#FFFFFE" transform="translate(194,91)"/>
<path d="M0 0 C1.98 0 3.96 0 6 0 C5.95875 0.7425 5.9175 1.485 5.875 2.25 C6.00398134 5.08758952 6.57051222 6.58773938 8 9 C5.36 8.67 2.72 8.34 0 8 C0 5.36 0 2.72 0 0 Z M3 1 C4 3 4 3 4 3 Z " fill="#FFFFFE" transform="translate(175,175)"/>
<path d="M0 0 C0.99 0 1.98 0 3 0 C3 0.66 3 1.32 3 2 C3.99 2.33 4.98 2.66 6 3 C5.67 2.01 5.34 1.02 5 0 C6.32 0.33 7.64 0.66 9 1 C9 3.31 9 5.62 9 8 C7.68 7.67 6.36 7.34 5 7 C5.33 6.34 5.66 5.68 6 5 C4.68 5 3.36 5 2 5 C2.33 5.99 2.66 6.98 3 8 C2.01 8 1.02 8 0 8 C0 5.36 0 2.72 0 0 Z " fill="#FFFFFF" transform="translate(55,175)"/>
<path d="M0 0 C0.9590625 0.2784375 0.9590625 0.2784375 1.9375 0.5625 C2.9584375 0.7790625 2.9584375 0.7790625 4 1 C4.33 0.67 4.66 0.34 5 0 C7.0625 0.4375 7.0625 0.4375 9 1 C8.67 3.64 8.34 6.28 8 9 C6.35 7.68 4.7 6.36 3 5 C3 5.99 3 6.98 3 8 C2.01 7.67 1.02 7.34 0 7 C0 4.69 0 2.38 0 0 Z " fill="#FFFFFF" transform="translate(24,175)"/>
<path d="M0 0 C2.875 -0.125 2.875 -0.125 6 0 C6.66 0.66 7.32 1.32 8 2 C7.875 4.5 7.875 4.5 7 7 C5.125 8.375 5.125 8.375 3 9 C2.01 8.67 1.02 8.34 0 8 C-1.125 2.25 -1.125 2.25 0 0 Z M2 1 C1.67 2.32 1.34 3.64 1 5 C2.98 5.99 2.98 5.99 5 7 C5 5.35 5 3.7 5 2 C4.01 1.67 3.02 1.34 2 1 Z " fill="#FFFFFE" transform="translate(110,175)"/>
<path d="M0 0 C1.98 0 3.96 0 6 0 C6.66 2.97 7.32 5.94 8 9 C5.36 8.67 2.72 8.34 0 8 C0 5.36 0 2.72 0 0 Z M3 1 C4 4 4 4 4 4 Z " fill="#FFFFFF" transform="translate(68,175)"/>
<path d="M0 0 C2.64 0 5.28 0 8 0 C7.67 0.556875 7.34 1.11375 7 1.6875 C5.8690399 4.30284522 5.84337026 6.1806646 6 9 C4.35 9 2.7 9 1 9 C1 7.35 1 5.7 1 4 C0.34 4 -0.32 4 -1 4 C-0.67 2.68 -0.34 1.36 0 0 Z " fill="#FFFFFE" transform="translate(98,174)"/>
<path d="M0 0 C0.66666667 2.66666667 1.33333333 5.33333333 2 8 C-1 10 -1 10 -5 10 C-4.67 8.68 -4.34 7.36 -4 6 C-2.515 6.99 -2.515 6.99 -1 8 C-1 7.34 -1 6.68 -1 6 C-1.99 5.67 -2.98 5.34 -4 5 C-4 3.68 -4 2.36 -4 1 C-2.68 0.67 -1.36 0.34 0 0 Z M-2 2 C-2 2.66 -2 3.32 -2 4 C-1.34 3.67 -0.68 3.34 0 3 C-0.66 2.67 -1.32 2.34 -2 2 Z " fill="#FFFFFF" transform="translate(92,174)"/>
<path d="M0 0 C0.94875 0.04125 1.8975 0.0825 2.875 0.125 C2.545 1.115 2.215 2.105 1.875 3.125 C0.555 3.125 -0.765 3.125 -2.125 3.125 C-1.795 4.775 -1.465 6.425 -1.125 8.125 C0.195 8.125 1.515 8.125 2.875 8.125 C2.875 8.785 2.875 9.445 2.875 10.125 C-0.13531744 11.05923645 -0.99150268 11.16949911 -4.125 10.125 C-5.50625018 7.36249964 -5.31579306 5.17768901 -5.125 2.125 C-3.125 0.125 -3.125 0.125 0 0 Z " fill="#FFFFFF" transform="translate(48.125,172.875)"/>
<path d="M0 0 C1.32 0.33 2.64 0.66 4 1 C4 2.65 4 4.3 4 6 C4.66 6.33 5.32 6.66 6 7 C6 4.69 6 2.38 6 0 C6.99 0.33 7.98 0.66 9 1 C8.1875 4.4375 8.1875 4.4375 7 8 C6.01 8.33 5.02 8.66 4 9 C3.01 8.34 2.02 7.68 1 7 C0.3125 3.375 0.3125 3.375 0 0 Z " fill="#FFFFFF" transform="translate(162,175)"/>
<path d="M0 0 C2.64 0 5.28 0 8 0 C7.34 1.32 6.68 2.64 6 4 C6 3.34 6 2.68 6 2 C5.34 2 4.68 2 4 2 C4.66 4.31 5.32 6.62 6 9 C4.35 9 2.7 9 1 9 C1 7.02 1 5.04 1 3 C0.01 3.495 0.01 3.495 -1 4 C-0.67 2.68 -0.34 1.36 0 0 Z " fill="#FFFFFF" transform="translate(151,174)"/>
<path d="M0 0 C2.31 0 4.62 0 7 0 C7 0.99 7 1.98 7 3 C6.34 3 5.68 3 5 3 C5 2.34 5 1.68 5 1 C4.34 1 3.68 1 3 1 C3.33 1.99 3.66 2.98 4 4 C4.66 4 5.32 4 6 4 C5.67 4.99 5.34 5.98 5 7 C4.01 6.67 3.02 6.34 2 6 C2.66 7.32 3.32 8.64 4 10 C2.68 9.67 1.36 9.34 0 9 C0 6.03 0 3.06 0 0 Z " fill="#FFFFFF" transform="translate(128,173)"/>
<path d="M0 0 C0.99 0 1.98 0 3 0 C3 2.31 3 4.62 3 7 C3.66 6.67 4.32 6.34 5 6 C5 4.02 5 2.04 5 0 C5.99 0.33 6.98 0.66 8 1 C7.1875 4.4375 7.1875 4.4375 6 8 C5.01 8.33 4.02 8.66 3 9 C2.01 8.34 1.02 7.68 0 7 C-0.1875 3.375 -0.1875 3.375 0 0 Z " fill="#FFFFFF" transform="translate(186,175)"/>
<path d="M0 0 C0.99 0.33 1.98 0.66 3 1 C3 2.65 3 4.3 3 6 C3.66 6.33 4.32 6.66 5 7 C5 4.69 5 2.38 5 0 C5.99 0.33 6.98 0.66 8 1 C7.1875 4.4375 7.1875 4.4375 6 8 C5.01 8.33 4.02 8.66 3 9 C2.01 8.34 1.02 7.68 0 7 C-0.1875 3.375 -0.1875 3.375 0 0 Z " fill="#FFFFFF" transform="translate(139,175)"/>
<path d="M0 0 C1.32 0.33 2.64 0.66 4 1 C4 3.97 4 6.94 4 10 C2.68 9.67 1.36 9.34 0 9 C0 6.03 0 3.06 0 0 Z " fill="#FFFFFF" transform="translate(17,173)"/>
<path d="M0 0 C1.32 0.33 2.64 0.66 4 1 C4 3.31 4 5.62 4 8 C2.68 7.67 1.36 7.34 0 7 C0 4.69 0 2.38 0 0 Z " fill="#FFFFFF" transform="translate(79,175)"/>
</svg>
